<svg xmlns="http://www.w3.org/2000/svg" width="1100" height="680" viewBox="0 0 1100 680"><rect width="100%" height="100%" fill="white"/><style>text{font-family:Arial,sans-serif;fill:#172033}.title{font-size:22px;font-weight:700}.axis{stroke:#172033;stroke-width:1.3}.grid{stroke:#dfe5ee}.tick{font-size:12px}.model{font-size:13px;font-weight:700}.legend{font-size:13px}</style><text class="title" x="550" y="30" text-anchor="middle">Generator-dependent effect of grounding</text><rect x="770" y="46" width="15" height="15" fill="#3578c8"/><text class="legend" x="792" y="58">Direct</text><rect x="875" y="46" width="15" height="15" fill="#e07a35"/><text class="legend" x="897" y="58">Grounded + verified</text><text x="297.5" y="72" text-anchor="middle" font-size="16" font-weight="700">Strict success rate</text><line class="grid" x1="65" y1="580.0" x2="530" y2="580.0"/><text class="tick" x="57" y="584.0" text-anchor="end">0.00</text><line class="grid" x1="65" y1="455.0" x2="530" y2="455.0"/><text class="tick" x="57" y="459.0" text-anchor="end">0.12</text><line class="grid" x1="65" y1="330.0" x2="530" y2="330.0"/><text class="tick" x="57" y="334.0" text-anchor="end">0.25</text><line class="grid" x1="65" y1="205.0" x2="530" y2="205.0"/><text class="tick" x="57" y="209.0" text-anchor="end">0.38</text><line class="grid" x1="65" y1="80.0" x2="530" y2="80.0"/><text class="tick" x="57" y="84.0" text-anchor="end">0.50</text><line class="axis" x1="65" y1="580" x2="530" y2="580"/><rect x="86.5" y="455.0" width="25" height="125.0" fill="#3578c8"/><rect x="111.5" y="580.0" width="25" height="0.0" fill="#e07a35"/><text class="model" x="111.5" y="604" text-anchor="middle">tiny</text><rect x="179.5" y="580.0" width="25" height="0.0" fill="#3578c8"/><rect x="204.5" y="580.0" width="25" height="0.0" fill="#e07a35"/><text class="model" x="204.5" y="604" text-anchor="middle">small</text><rect x="272.5" y="371.7" width="25" height="208.3" fill="#3578c8"/><rect x="297.5" y="138.3" width="25" height="441.7" fill="#e07a35"/><text class="model" x="297.5" y="604" text-anchor="middle">granite</text><rect x="365.5" y="346.7" width="25" height="233.3" fill="#3578c8"/><rect x="390.5" y="238.3" width="25" height="341.7" fill="#e07a35"/><text class="model" x="390.5" y="604" text-anchor="middle">peer</text><rect x="458.5" y="446.7" width="25" height="133.3" fill="#3578c8"/><rect x="483.5" y="155.0" width="25" height="425.0" fill="#e07a35"/><text class="model" x="483.5" y="604" text-anchor="middle">upper</text><text x="832.5" y="72" text-anchor="middle" font-size="16" font-weight="700">Mean GPU energy (J/query)</text><line class="grid" x1="600" y1="580.0" x2="1065" y2="580.0"/><text class="tick" x="592" y="584.0" text-anchor="end">0</text><line class="grid" x1="600" y1="455.0" x2="1065" y2="455.0"/><text class="tick" x="592" y="459.0" text-anchor="end">75</text><line class="grid" x1="600" y1="330.0" x2="1065" y2="330.0"/><text class="tick" x="592" y="334.0" text-anchor="end">150</text><line class="grid" x1="600" y1="205.0" x2="1065" y2="205.0"/><text class="tick" x="592" y="209.0" text-anchor="end">225</text><line class="grid" x1="600" y1="80.0" x2="1065" y2="80.0"/><text class="tick" x="592" y="84.0" text-anchor="end">300</text><line class="axis" x1="600" y1="580" x2="1065" y2="580"/><rect x="621.5" y="488.8" width="25" height="91.2" fill="#3578c8"/><rect x="646.5" y="244.3" width="25" height="335.7" fill="#e07a35"/><text class="model" x="646.5" y="604" text-anchor="middle">tiny</text><rect x="714.5" y="151.7" width="25" height="428.3" fill="#3578c8"/><rect x="739.5" y="145.2" width="25" height="434.8" fill="#e07a35"/><text class="model" x="739.5" y="604" text-anchor="middle">small</text><rect x="807.5" y="484.8" width="25" height="95.2" fill="#3578c8"/><rect x="832.5" y="285.5" width="25" height="294.5" fill="#e07a35"/><text class="model" x="832.5" y="604" text-anchor="middle">granite</text><rect x="900.5" y="401.0" width="25" height="179.0" fill="#3578c8"/><rect x="925.5" y="331.8" width="25" height="248.2" fill="#e07a35"/><text class="model" x="925.5" y="604" text-anchor="middle">peer</text><rect x="993.5" y="439.3" width="25" height="140.7" fill="#3578c8"/><rect x="1018.5" y="153.1" width="25" height="426.9" fill="#e07a35"/><text class="model" x="1018.5" y="604" text-anchor="middle">upper</text><text x="550" y="655" text-anchor="middle" font-size="13" fill="#526071">Same 120 frozen questions per direct-grounded pair; selected-GPU board energy</text></svg>
