<svg xmlns="http://www.w3.org/2000/svg" width="1200" height="700" viewBox="0 0 1200 700"><rect width="100%" height="100%" fill="white"/><style>text{font-family:Arial,sans-serif;fill:#172033}.axis{stroke:#172033;stroke-width:1.4}.grid{stroke:#dfe5ee;stroke-width:1}.label{font-size:12px}.title{font-size:22px;font-weight:700}.tick{font-size:12px}.note{font-size:13px;fill:#526071}</style><text class="title" x="600" y="29" text-anchor="middle">Clean-test quality versus generation-window GPU energy</text><circle cx="825" cy="48" r="6" fill="#1c7c54"/><text class="note" x="837" y="52">non-zero success</text><circle cx="960" cy="48" r="6" fill="#9aa5b1"/><text class="note" x="972" y="52">zero success</text><circle cx="1075" cy="48" r="6" fill="#c43d3d"/><text class="note" x="1087" y="52">selected policy</text><line class="grid" x1="134.2" y1="55" x2="134.2" y2="610"/><text class="tick" x="134.2" y="634" text-anchor="middle">50</text><line class="grid" x1="330.2" y1="55" x2="330.2" y2="610"/><text class="tick" x="330.2" y="634" text-anchor="middle">100</text><line class="grid" x1="526.2" y1="55" x2="526.2" y2="610"/><text class="tick" x="526.2" y="634" text-anchor="middle">150</text><line class="grid" x1="722.2" y1="55" x2="722.2" y2="610"/><text class="tick" x="722.2" y="634" text-anchor="middle">200</text><line class="grid" x1="918.2" y1="55" x2="918.2" y2="610"/><text class="tick" x="918.2" y="634" text-anchor="middle">250</text><line class="grid" x1="95" y1="610.0" x2="1075" y2="610.0"/><text class="tick" x="83" y="614.0" text-anchor="end">0.0</text><line class="grid" x1="95" y1="499.0" x2="1075" y2="499.0"/><text class="tick" x="83" y="503.0" text-anchor="end">0.1</text><line class="grid" x1="95" y1="388.0" x2="1075" y2="388.0"/><text class="tick" x="83" y="392.0" text-anchor="end">0.2</text><line class="grid" x1="95" y1="277.0" x2="1075" y2="277.0"/><text class="tick" x="83" y="281.0" text-anchor="end">0.3</text><line class="grid" x1="95" y1="166.0" x2="1075" y2="166.0"/><text class="tick" x="83" y="170.0" text-anchor="end">0.4</text><line class="grid" x1="95" y1="55.0" x2="1075" y2="55.0"/><text class="tick" x="83" y="59.0" text-anchor="end">0.5</text><line class="axis" x1="95" y1="610" x2="1075" y2="610"/><line class="axis" x1="95" y1="55" x2="95" y2="610"/><text x="585.0" y="670" text-anchor="middle">Mean generation-window GPU-board energy (J/query)</text><text transform="translate(25 332.5) rotate(-90)" text-anchor="middle">Strict support-qualified success rate</text><circle cx="152.7" cy="471.2" r="7" fill="#1c7c54" stroke="white" stroke-width="1.5"/><text class="label" x="160.7" y="461.2">A00_tiny_direct</text><circle cx="556.3" cy="610.0" r="5" fill="#9aa5b1" stroke="white" stroke-width="1.5"/><circle cx="527.8" cy="610.0" r="5" fill="#9aa5b1" stroke="white" stroke-width="1.5"/><circle cx="499.4" cy="610.0" r="8" fill="#c43d3d" stroke="white" stroke-width="1.5"/><text class="label" x="507.4" y="600.0">A03_tiny_hybrid</text><circle cx="945.5" cy="610.0" r="5" fill="#9aa5b1" stroke="white" stroke-width="1.5"/><circle cx="522.1" cy="610.0" r="5" fill="#9aa5b1" stroke="white" stroke-width="1.5"/><circle cx="605.8" cy="610.0" r="5" fill="#9aa5b1" stroke="white" stroke-width="1.5"/><circle cx="610.4" cy="610.0" r="5" fill="#9aa5b1" stroke="white" stroke-width="1.5"/><circle cx="951.7" cy="610.0" r="5" fill="#9aa5b1" stroke="white" stroke-width="1.5"/><circle cx="960.7" cy="610.0" r="5" fill="#9aa5b1" stroke="white" stroke-width="1.5"/><circle cx="942.2" cy="138.2" r="7" fill="#1c7c54" stroke="white" stroke-width="1.5"/><text class="label" x="950.2" y="128.2">A14_upper_hybrid_verified</text><circle cx="727.8" cy="610.0" r="5" fill="#9aa5b1" stroke="white" stroke-width="1.5"/><circle cx="162.2" cy="378.7" r="7" fill="#1c7c54" stroke="white" stroke-width="1.5"/><text class="label" x="170.2" y="368.7">M17_granite_direct</text><circle cx="630.8" cy="119.8" r="7" fill="#1c7c54" stroke="white" stroke-width="1.5"/><text class="label" x="638.8" y="109.8">M18_granite_grounded_verified</text><circle cx="359.3" cy="351.0" r="7" fill="#1c7c54" stroke="white" stroke-width="1.5"/><text class="label" x="367.3" y="341.0">M19_peer_direct</text><circle cx="522.0" cy="230.8" r="7" fill="#1c7c54" stroke="white" stroke-width="1.5"/><text class="label" x="530.0" y="220.8">M20_peer_grounded_verified</text><circle cx="269.1" cy="462.0" r="7" fill="#1c7c54" stroke="white" stroke-width="1.5"/><text class="label" x="277.1" y="452.0">M21_upper_direct</text><text class="note" x="1180" y="680" text-anchor="end">All routes: n=120 clean queries; energy coverage=100%</text></svg>
