<svg xmlns="http://www.w3.org/2000/svg" width="1800" height="650" viewBox="0 0 1800 650"><rect width="100%" height="100%" fill="#ffffff"/><text x="900.0" y="52" text-anchor="middle" font-family="Arial, Helvetica, sans-serif" font-size="32" font-weight="700" fill="#172033">Failure-first audit of the frozen resident-eligible pool</text><text x="900.0" y="90" text-anchor="middle" font-family="Arial, Helvetica, sans-serif" font-size="20" font-weight="400" fill="#536173">Each question is a prerequisite for defensible constrained routing</text><rect x="38" y="135" width="300" height="320" rx="22" fill="#fff4d6" stroke="#9a6700" stroke-width="4"/><text x="188.0" y="193" text-anchor="middle" font-family="Arial, Helvetica, sans-serif" font-size="24" font-weight="700" fill="#172033">1. Interface</text><rect x="118" y="223" width="140" height="48" rx="16" fill="#9a6700"/><text x="188.0" y="256" text-anchor="middle" font-family="Arial, Helvetica, sans-serif" font-size="20" font-weight="700" fill="#ffffff">PARTIAL</text><text x="188.0" y="340" text-anchor="middle" font-family="Arial, Helvetica, sans-serif" font-size="20" font-weight="600" fill="#172033">3 eligible routes</text><text x="188.0" y="382" text-anchor="middle" font-family="Arial, Helvetica, sans-serif" font-size="20" font-weight="400" fill="#172033">0% parseable</text><line x1="345" y1="295.0" x2="372" y2="295.0" stroke="#6d7888" stroke-width="5"/><polygon points="372,284.0 372,306.0 390,295.0" fill="#6d7888"/><rect x="383" y="135" width="300" height="320" rx="22" fill="#fde8e8" stroke="#b4232f" stroke-width="4"/><text x="533.0" y="193" text-anchor="middle" font-family="Arial, Helvetica, sans-serif" font-size="24" font-weight="700" fill="#172033">2. Capability</text><rect x="463" y="223" width="140" height="48" rx="16" fill="#b4232f"/><text x="533.0" y="256" text-anchor="middle" font-family="Arial, Helvetica, sans-serif" font-size="20" font-weight="700" fill="#ffffff">FAIL</text><text x="533.0" y="340" text-anchor="middle" font-family="Arial, Helvetica, sans-serif" font-size="20" font-weight="600" fill="#172033">Oracle ceiling 12.5%</text><text x="533.0" y="382" text-anchor="middle" font-family="Arial, Helvetica, sans-serif" font-size="20" font-weight="400" fill="#172033">required floor 80%</text><line x1="690" y1="295.0" x2="717" y2="295.0" stroke="#6d7888" stroke-width="5"/><polygon points="717,284.0 717,306.0 735,295.0" fill="#6d7888"/><rect x="728" y="135" width="300" height="320" rx="22" fill="#fde8e8" stroke="#b4232f" stroke-width="4"/><text x="878.0" y="193" text-anchor="middle" font-family="Arial, Helvetica, sans-serif" font-size="24" font-weight="700" fill="#172033">3. Complementarity</text><rect x="808" y="223" width="140" height="48" rx="16" fill="#b4232f"/><text x="878.0" y="256" text-anchor="middle" font-family="Arial, Helvetica, sans-serif" font-size="20" font-weight="700" fill="#ffffff">FAIL</text><text x="878.0" y="340" text-anchor="middle" font-family="Arial, Helvetica, sans-serif" font-size="20" font-weight="600" fill="#172033">Best fixed = oracle</text><text x="878.0" y="382" text-anchor="middle" font-family="Arial, Helvetica, sans-serif" font-size="20" font-weight="400" fill="#172033">headroom 0.0 pp</text><line x1="1035" y1="295.0" x2="1062" y2="295.0" stroke="#6d7888" stroke-width="5"/><polygon points="1062,284.0 1062,306.0 1080,295.0" fill="#6d7888"/><rect x="1073" y="135" width="300" height="320" rx="22" fill="#e7f0fb" stroke="#245f9e" stroke-width="4"/><text x="1223.0" y="193" text-anchor="middle" font-family="Arial, Helvetica, sans-serif" font-size="24" font-weight="700" fill="#172033">4. Cost</text><rect x="1153" y="223" width="140" height="48" rx="16" fill="#245f9e"/><text x="1223.0" y="256" text-anchor="middle" font-family="Arial, Helvetica, sans-serif" font-size="20" font-weight="700" fill="#ffffff">QUALIFIED</text><text x="1223.0" y="340" text-anchor="middle" font-family="Arial, Helvetica, sans-serif" font-size="20" font-weight="600" fill="#172033">1,320 calls sampled</text><text x="1223.0" y="382" text-anchor="middle" font-family="Arial, Helvetica, sans-serif" font-size="20" font-weight="400" fill="#172033">generation only; 4 boards</text><line x1="1380" y1="295.0" x2="1407" y2="295.0" stroke="#6d7888" stroke-width="5"/><polygon points="1407,284.0 1407,306.0 1425,295.0" fill="#6d7888"/><rect x="1418" y="135" width="300" height="320" rx="22" fill="#fde8e8" stroke="#b4232f" stroke-width="4"/><text x="1568.0" y="193" text-anchor="middle" font-family="Arial, Helvetica, sans-serif" font-size="24" font-weight="700" fill="#172033">5. Selectability</text><rect x="1498" y="223" width="140" height="48" rx="16" fill="#b4232f"/><text x="1568.0" y="256" text-anchor="middle" font-family="Arial, Helvetica, sans-serif" font-size="20" font-weight="700" fill="#ffffff">FAIL</text><text x="1568.0" y="340" text-anchor="middle" font-family="Arial, Helvetica, sans-serif" font-size="20" font-weight="600" fill="#172033">0 of 9 thresholds</text><text x="1568.0" y="382" text-anchor="middle" font-family="Arial, Helvetica, sans-serif" font-size="20" font-weight="400" fill="#172033">validation-feasible</text><rect x="360" y="515" width="1080" height="72" rx="18" fill="#eef2f7" stroke="#50627a" stroke-width="2"/><text x="900.0" y="561" text-anchor="middle" font-family="Arial, Helvetica, sans-serif" font-size="24" font-weight="700" fill="#172033">Audit outcome: redesign the eligible pool before interpreting router optimization.</text></svg>
